:FULLY-SPECIFIED
:FORCE-ALL-JOINTS-BE-3DOF
:DEGREES
485
root 10.7729 17.191 31.7785 4.87076 4.10686 4.74541
lfemur 9.04364 1.94919 -29.1693
ltibia 5.15327 0 0
lfoot -15.3912 4.59517 0
ltoes 2.2104 0 0
rfemur -38.2661 10.8476 8.52558
rtibia 34.5864 0 0
rfoot -25.4491 -8.42276 0
rtoes -2.94153 0 0
lowerback -5.79548 -4.41848 -5.16162
upperback -0.3049 -5.57861 1.11342
thorax 3.5699 -2.87207 3.48799
lowerneck -22.2492 -2.7051 -10.2651
upperneck 25.1606 -3.45477 11.0519
head 12.4111 -1.081 5.41074
lclavicle 1.26052e-14 1.84627e-14 0
lhumerus -15.7778 -21.9073 86.574
lradius 32.3902 0 0
lwrist 4.29022 0 0
lhand -13.9323 -25.7118 0
lfingers 7.12502 0 0
lthumb 12.1941 3.908 0
rclavicle 1.26052e-14 1.84627e-14 0
rhumerus -49.5412 8.17617 -86.1843
rradius 35.6934 0 0
rwrist -17.5273 0 0
rhand -29.2632 -24.8538 0
rfingers 7.12502 0 0
rthumb -2.60585 -54.8169 0
486
root 10.7724 17.1828 31.9071 4.8575 4.21182 4.82423
lfemur 9.90153 1.89306 -29.1944
ltibia 4.50911 0 0
lfoot -15.4723 4.5874 0
ltoes 2.278 0 0
rfemur -38.8452 11.2474 8.26153
rtibia 33.6629 0 0
rfoot -25.9561 -8.43412 0
rtoes -2.44253 0 0
lowerback -5.80456 -4.51956 -5.23365
upperback -0.26808 -5.70783 1.10591
thorax 3.6293 -2.93902 3.50655
lowerneck -22.2863 -2.66367 -10.217
upperneck 25.1874 -3.41451 11.0639
head 12.4226 -1.0562 5.41555
lclavicle 1.43126e-14 1.89379e-14 0
lhumerus -15.4672 -22.2109 86.4732
lradius 32.7455 0 0
lwrist 4.55905 0 0
lhand -14.0176 -25.7828 0
lfingers 7.12502 0 0
lthumb 12.1119 3.84232 0
rclavicle 1.43126e-14 1.89379e-14 0
rhumerus -49.6718 8.10073 -86.1201
rradius 35.7348 0 0
rwrist -17.675 0 0
rhand -29.2285 -24.6449 0
rfingers 7.12502 0 0
rthumb -2.57233 -54.6085 0
487
root 10.772 17.1745 32.0357 4.84425 4.31679 4.90306
lfemur 10.7594 1.83694 -29.2196
ltibia 3.86495 0 0
lfoot -15.5533 4.57964 0
ltoes 2.3456 0 0
rfemur -39.4243 11.6471 7.99747
rtibia 32.7394 0 0
rfoot -26.4631 -8.44549 0
rtoes -1.94352 0 0
lowerback -5.81365 -4.62063 -5.30569
upperback -0.231259 -5.83706 1.09839
thorax 3.6887 -3.00596 3.52512
lowerneck -22.3235 -2.62225 -10.1689
upperneck 25.2141 -3.37426 11.0758
head 12.4341 -1.0314 5.42036
lclavicle 1.602e-14 1.9413e-14 0
lhumerus -15.1567 -22.5145 86.3725
lradius 33.1009 0 0
lwrist 4.82789 0 0
lhand -14.1028 -25.8538 0
lfingers 7.12502 0 0
lthumb 12.0297 3.77664 0
rclavicle 1.602e-14 1.9413e-14 0
rhumerus -49.8025 8.0253 -86.056
rradius 35.7762 0 0
rwrist -17.8227 0 0
rhand -29.1937 -24.4361 0
rfingers 7.12502 0 0
rthumb -2.53881 -54.4001 0
488
root 10.7715 17.1663 32.1643 4.83099 4.42175 4.98188
lfemur 11.6173 1.78082 -29.2447
ltibia 3.22079 0 0
lfoot -15.6344 4.57187 0
ltoes 2.4132 0 0
rfemur -40.0034 12.0468 7.73342
rtibia 31.8159 0 0
rfoot -26.9701 -8.45685 0
rtoes -1.44452 0 0
lowerback -5.82273 -4.72171 -5.37773
upperback -0.194439 -5.96628 1.09087
thorax 3.7481 -3.07291 3.54368
lowerneck -22.3606 -2.58082 -10.1207
upperneck 25.2409 -3.334 11.0878
head 12.4457 -1.0066 5.42516
lclavicle 1.77274e-14 1.98882e-14 0
lhumerus -14.8461 -22.818 86.2717
lradius 33.4562 0 0
lwrist 5.09672 0 0
lhand -14.1881 -25.9248 0
lfingers 7.12502 0 0
lthumb 11.9475 3.71096 0
rclavicle 1.77274e-14 1.98882e-14 0
rhumerus -49.9331 7.94986 -85.9918
rradius 35.8176 0 0
rwrist -17.9704 0 0
rhand -29.159 -24.2272 0
rfingers 7.12502 0 0
rthumb -2.50529 -54.1917 0
489
root 10.7711 17.1581 32.2929 4.81774 4.52672 5.06071
lfemur 12.4752 1.72469 -29.2699
ltibia 2.57663 0 0
lfoot -15.7155 4.56411 0
ltoes 2.4808 0 0
rfemur -40.5825 12.4466 7.46937
rtibia 30.8924 0 0
rfoot -27.4771 -8.46821 0
rtoes -0.945519 0 0
lowerback -5.83182 -4.82278 -5.44977
upperback -0.157619 -6.09551 1.08335
thorax 3.8075 -3.13986 3.56224
lowerneck -22.3978 -2.53939 -10.0726
upperneck 25.2677 -3.29374 11.0998
head 12.4572 -0.981799 5.42997
lclavicle 1.94348e-14 2.03633e-14 0
lhumerus -14.5356 -23.1216 86.1709
lradius 33.8115 0 0
lwrist 5.36555 0 0
lhand -14.2733 -25.9958 0
lfingers 7.12502 0 0
lthumb 11.8654 3.64527 0
rclavicle 1.94348e-14 2.03633e-14 0
rhumerus -50.0637 7.87443 -85.9277
rradius 35.859 0 0
rwrist -18.1182 0 0
rhand -29.1243 -24.0183 0
rfingers 7.12502 0 0
rthumb -2.47178 -53.9833 0
490
root 10.7706 17.1499 32.4215 4.80448 4.63168 5.13953
lfemur 13.3331 1.66857 -29.295
ltibia 1.93248 0 0
lfoot -15.7965 4.55634 0
ltoes 2.5484 0 0
rfemur -41.1616 12.8463 7.20532
rtibia 29.9689 0 0
rfoot -27.9842 -8.47958 0
rtoes -0.446517 0 0
lowerback -5.8409 -4.92386 -5.52181
upperback -0.120799 -6.22473 1.07583
thorax 3.8669 -3.20681 3.5808
lowerneck -22.4349 -2.49797 -10.0245
upperneck 25.2945 -3.25348 11.1118
head 12.4687 -0.957 5.43478
lclavicle 2.11422e-14 2.08385e-14 0
lhumerus -14.225 -23.4252 86.0702
lradius 34.1668 0 0
lwrist 5.63439 0 0
lhand -14.3586 -26.0668 0
lfingers 7.12502 0 0
lthumb 11.7832 3.57959 0
rclavicle 2.11422e-14 2.08385e-14 0
rhumerus -50.1943 7.79899 -85.8635
rradius 35.9004 0 0
rwrist -18.2659 0 0
rhand -29.0896 -23.8094 0
rfingers 7.12502 0 0
rthumb -2.43826 -53.7749 0
491
root 10.7701 17.1416 32.55 4.79123 4.73665 5.21836
lfemur 14.191 1.61245 -29.3201
ltibia 1.28832 0 0
lfoot -15.8776 4.54857 0
ltoes 2.616 0 0
rfemur -41.7407 13.246 6.94126
rtibia 29.0454 0 0
rfoot -28.4912 -8.49094 0
rtoes 0.0524856 0 0
lowerback -5.84999 -5.02493 -5.59384
upperback -0.0839782 -6.35396 1.06832
thorax 3.92631 -3.27375 3.59936
lowerneck -22.4721 -2.45654 -9.97634
upperneck 25.3212 -3.21322 11.1237
head 12.4802 -0.9322 5.43959
lclavicle 2.28496e-14 2.13136e-14 0
lhumerus -13.9144 -23.7288 85.9694
lradius 34.5221 0 0
lwrist 5.90322 0 0
lhand -14.4439 -26.1379 0
lfingers 7.12502 0 0
lthumb 11.701 3.51391 0
rclavicle 2.28496e-14 2.13136e-14 0
rhumerus -50.325 7.72356 -85.7994
rradius 35.9418 0 0
rwrist -18.4136 0 0
rhand -29.0549 -23.6006 0
rfingers 7.12502 0 0
rthumb -2.40474 -53.5665 0
492
root 10.7697 17.1334 32.6786 4.77797 4.84161 5.29718
lfemur 15.0489 1.55632 -29.3453
ltibia 0.644159 0 0
lfoot -15.9586 4.54081 0
ltoes 2.6836 0 0
rfemur -42.3198 13.6458 6.67721
rtibia 28.1219 0 0
rfoot -28.9982 -8.50231 0
rtoes 0.551488 0 0
lowerback -5.85907 -5.12601 -5.66588
upperback -0.0471579 -6.48318 1.0608
thorax 3.98571 -3.3407 3.61792
lowerneck -22.5092 -2.41512 -9.92822
upperneck 25.348 -3.17296 11.1357
head 12.4917 -0.907401 5.44439
lclavicle 2.4557e-14 2.17888e-14 0
lhumerus -13.6039 -24.0323 85.8687
lradius 34.8774 0 0
lwrist 6.17206 0 0
lhand -14.5291 -26.2089 0
lfingers 7.12502 0 0
lthumb 11.6188 3.44823 0
rclavicle 2.4557e-14 2.17888e-14 0
rhumerus -50.4556 7.64812 -85.7352
rradius 35.9832 0 0
rwrist -18.5613 0 0
rhand -29.0202 -23.3917 0
rfingers 7.12502 0 0
rthumb -2.37122 -53.3581 0
493
root 10.7692 17.1252 32.8072 4.76472 4.94658 5.37601
lfemur 15.9068 1.5002 -29.3704
ltibia 3.18055e-15 0 0
lfoot -16.0397 4.53304 0
ltoes 2.7512 0 0
rfemur -42.8989 14.0455 6.41316
rtibia 27.1984 0 0
rfoot -29.5052 -8.51367 0
rtoes 1.05049 0 0
lowerback -5.86816 -5.22708 -5.73792
upperback -0.0103376 -6.61241 1.05328
thorax 4.04511 -3.40765 3.63648
lowerneck -22.5464 -2.37369 -9.88009
upperneck 25.3748 -3.1327 11.1477
head 12.5032 -0.882602 5.4492
lclavicle 2.62644e-14 2.22639e-14 0
lhumerus -13.2933 -24.3359 85.7679
lradius 35.2327 0 0
lwrist 6.44089 0 0
lhand -14.6144 -26.2799 0
lfingers 7.12502 0 0
lthumb 11.5366 3.38255 0
rclavicle 2.62644e-14 2.22639e-14 0
rhumerus -50.5862 7.57269 -85.6711
rradius 36.0246 0 0
rwrist -18.709 0 0
rhand -28.9855 -23.1828 0
rfingers 7.12502 0 0
rthumb -2.3377 -53.1497 0
494
root 10.7481 17.0959 32.9558 4.65324 4.79708 5.51746
lfemur 16.5642 1.62343 -29.3651
ltibia -2.22639e-14 0 0
lfoot -16.0888 4.50031 0
ltoes 0.997747 0 0
rfemur -42.771 13.6049 6.80794
rtibia 27.2264 0 0
rfoot -29.1789 -8.67149 0
rtoes -0.677596 0 0
lowerback -6.13164 -5.23021 -6.04473
upperback 0.406665 -6.57042 1.04862
thorax 4.66047 -3.4167 3.75754
lowerneck -22.6942 -2.53726 -9.82119
upperneck 24.8054 -3.27237 10.95
head 12.3221 -0.957129 5.30872
lclavicle 5.31749e-14 2.22639e-14 0
lhumerus -12.7731 -23.3794 85.6477
lradius 35.7882 0 0
lwrist 8.117 0 0
lhand -15.7376 -26.2091 0
lfingers 7.12502 0 0
lthumb 10.4532 3.51098 0
rclavicle 5.31749e-14 2.22639e-14 0
rhumerus -49.9325 7.32231 -85.443
rradius 35.4595 0 0
rwrist -18.5607 0 0
rhand -29.0966 -22.7552 0
rfingers 7.12502 0 0
rthumb -2.44505 -52.7209 0
495
root 10.7306 17.0685 33.1104 4.86729 4.6655 5.48868
lfemur 16.8913 1.6869 -29.2017
ltibia 3.18055e-14 0 0
lfoot -16.0758 4.53664 0
ltoes -5.45447 0 0
rfemur -42.7838 12.8253 7.41241
rtibia 26.9642 0 0
rfoot -24.5665 -13.2811 0
rtoes -26.2908 0 0
lowerback -6.78009 -5.16509 -6.05225
upperback 0.771123 -6.43505 1.06323
thorax 5.39689 -3.37393 3.71693
lowerneck -23.0717 -2.50881 -9.72001
upperneck 24.4445 -3.20599 10.953
head 12.2456 -0.905414 5.29072
lclavicle -1.85367e-14 3.97569e-15 0
lhumerus -12.6917 -24.6731 85.8763
lradius 35.4237 0 0
lwrist 6.44554 0 0
lhand -15.4761 -26.4813 0
lfingers 7.12502 0 0
lthumb 10.7055 3.22593 0
rclavicle -1.85367e-14 3.97569e-15 0
rhumerus -49.2089 6.63563 -85.0246
rradius 34.8675 0 0
rwrist -18.1223 0 0
rhand -29.6432 -22.0297 0
rfingers 7.12502 0 0
rthumb -2.97289 -51.9887 0
496
root 10.7157 17.0513 33.2713 5.18013 4.61655 5.52685
lfemur 17.1368 1.64511 -29.082
ltibia 2.54444e-14 0 0
lfoot -16.1184 4.23907 0
ltoes -6.67752 0 0
rfemur -42.7783 12.0213 7.87843
rtibia 26.7043 0 0
rfoot -24.5665 -13.2811 0
rtoes -26.2908 0 0
lowerback -7.53232 -5.10591 -6.05913
upperback 1.05834 -6.29968 1.02861
thorax 6.10793 -3.32676 3.62364
lowerneck -23.8402 -2.4542 -9.48406
upperneck 24.5422 -3.19421 11.0841
head 12.4346 -0.841757 5.32016
lclavicle 1.82882e-14 2.38542e-15 0
lhumerus -12.2208 -24.7429 85.754
lradius 36.0106 0 0
lwrist 8.9382 0 0
lhand -9.89138 -25.5646 0
lfingers 7.12502 0 0
lthumb 16.0882 3.78753 0
rclavicle 1.82882e-14 2.38542e-15 0
rhumerus -48.5883 6.01938 -84.7235
rradius 34.187 0 0
rwrist -17.7107 0 0
rhand -29.8835 -21.2204 0
rfingers 7.12502 0 0
rthumb -3.20492 -51.1761 0
